<svg width="14" height="10" viewBox="0 0 14 10" fill="none" xmlns="http://www.w3.org/2000/svg">
<g clip-path="url(#clip0_9_177)">
<path d="M10.347 8.47446V3.83896C10.347 3.7535 10.2866 3.68445 10.2118 3.68445H7.77817C7.7034 3.68445 7.64297 3.75352 7.64297 3.83896V8.47446C7.64297 8.55992 7.70341 8.62897 7.77817 8.62897V8.78348C7.7034 8.78348 7.64297 8.85255 7.64297 8.93799V9.55606C7.64297 9.64152 7.70341 9.71057 7.77817 9.71057H10.2118C10.2866 9.71057 10.347 9.6415 10.347 9.55606V8.93803C10.347 8.85257 10.2866 8.78352 10.2118 8.78352V8.62901C10.2866 8.62899 10.347 8.55992 10.347 8.47446Z" fill="white"/>
<path d="M7.91323 3.37567H10.0765C10.1512 3.37567 10.2117 3.3066 10.2117 3.22116V3.06665C10.2117 2.05086 9.78698 1.08049 9.07596 0.470761C9.02783 0.429506 8.96185 0.429506 8.91372 0.470761C8.20269 1.08049 7.77802 2.05085 7.77802 3.06665V3.22116C7.77803 3.3066 7.83845 3.37567 7.91323 3.37567Z" fill="white"/>
</g>
<g clip-path="url(#clip1_9_177)">
<path d="M5.71163 8.47446V3.83896C5.71163 3.7535 5.6512 3.68445 5.57644 3.68445H3.14279C3.06802 3.68445 3.0076 3.75352 3.0076 3.83896V8.47446C3.0076 8.55992 3.06804 8.62897 3.14279 8.62897V8.78348C3.06802 8.78348 3.0076 8.85255 3.0076 8.93799V9.55606C3.0076 9.64152 3.06804 9.71057 3.14279 9.71057H5.57644C5.65121 9.71057 5.71163 9.6415 5.71163 9.55606V8.93803C5.71163 8.85257 5.6512 8.78352 5.57644 8.78352V8.62901C5.6512 8.62899 5.71163 8.55992 5.71163 8.47446Z" fill="white"/>
<path d="M3.27785 3.37567H5.44109C5.51586 3.37567 5.57628 3.3066 5.57628 3.22116V3.06665C5.57628 2.05086 5.15161 1.08049 4.44058 0.470761C4.39245 0.429506 4.32647 0.429506 4.27834 0.470761C3.56731 1.08049 3.14264 2.05085 3.14264 3.06665V3.22116C3.14266 3.3066 3.20308 3.37567 3.27785 3.37567Z" fill="white"/>
</g>
<defs>
<clipPath id="clip0_9_177">
<rect width="8.11215" height="9.27103" fill="white" transform="translate(4.93839 0.439209)"/>
</clipPath>
<clipPath id="clip1_9_177">
<rect width="8.11215" height="9.27103" fill="white" transform="translate(0.302856 0.439209)"/>
</clipPath>
</defs>
</svg>
