<svg version="1.1" id="Uploaded to svgrepo.com" xmlns="http://www.w3.org/2000/svg" xmlns:xlink="http://www.w3.org/1999/xlink" x="0px" y="0px"
	 width="32px" fill="white" height="32px" viewBox="0 0 32 32" style="enable-background:new 0 0 32 32;" xml:space="preserve">
<path class="linesandangles_een" d="M16,4C9.373,4,4,9.373,4,16s5.373,12,12,12s12-5.373,12-12S22.627,4,16,4z M16,26
	c-5.514,0-10-4.486-10-10S10.486,6,16,6s10,4.486,10,10S21.514,26,16,26z M15,22h2v2h-2V22z M8,15h2v2H8V15z M24,15v2h-2v-2H24z
	 M17,15.586l3.707,3.707l-1.414,1.414l-4-4C15.105,16.52,15,16.266,15,16V8h2V15.586z"/>
</svg>